<?xml version="1.0" encoding="UTF-8" standalone="no"?>
<!-- Created with Inkscape (http://www.inkscape.org/) -->

<svg
   width="512"
   height="512"
   viewBox="0 0 135.46667 135.46667"
   version="1.1"
   id="svg1"
   sodipodi:docname="hypr_handled_path_v3.svg"
   inkscape:version="1.4.4 (dcaf3e7d9e, 2026-05-05)"
   inkscape:export-filename="hypr_handled2.svg"
   inkscape:export-xdpi="96"
   inkscape:export-ydpi="96"
   xmlns:inkscape="http://www.inkscape.org/namespaces/inkscape"
   xmlns:sodipodi="http://sodipodi.sourceforge.net/DTD/sodipodi-0.dtd"
   xmlns:xlink="http://www.w3.org/1999/xlink"
   xmlns="http://www.w3.org/2000/svg"
   xmlns:svg="http://www.w3.org/2000/svg">
  <sodipodi:namedview
     id="namedview1"
     pagecolor="#ffffff"
     bordercolor="#000000"
     borderopacity="0.25"
     inkscape:showpageshadow="2"
     inkscape:pageopacity="0.0"
     inkscape:pagecheckerboard="0"
     inkscape:deskcolor="#d1d1d1"
     inkscape:document-units="mm"
     showguides="false"
     inkscape:zoom="2"
     inkscape:cx="151.5"
     inkscape:cy="96.25"
     inkscape:window-width="1516"
     inkscape:window-height="788"
     inkscape:window-x="0"
     inkscape:window-y="0"
     inkscape:window-maximized="1"
     inkscape:current-layer="layer1" />
  <defs
     id="defs1">
    <inkscape:path-effect
       effect="fillet_chamfer"
       id="path-effect5"
       is_visible="true"
       lpeversion="1"
       nodesatellites_param="F,0,0,1,0,0,0,1 @ F,0,0,1,0,0,0,1 @ F,0,0,1,0,0,0,1 @ F,0,0,1,0,0,0,1 @ F,0,0,1,0,0,0,1 @ F,0,0,1,0,0,0,1 @ F,0,0,1,0,0,0,1 @ F,0,0,1,0,0,0,1 @ F,0,0,1,0,0,0,1"
       radius="0"
       unit="px"
       method="auto"
       mode="F"
       chamfer_steps="1"
       flexible="false"
       use_knot_distance="true"
       apply_no_radius="true"
       apply_with_radius="true"
       only_selected="false"
       hide_knots="false" />
    <inkscape:path-effect
       effect="fillet_chamfer"
       id="path-effect4"
       is_visible="true"
       lpeversion="1"
       nodesatellites_param="F,0,0,1,0,0,0,1 @ F,0,0,1,0,0,0,1 @ F,0,0,1,0,0,0,1 @ F,0,0,1,0,0,0,1 @ F,0,0,1,0,0,0,1 @ F,0,0,1,0,0,0,1 @ F,0,0,1,0,0,0,1 @ F,0,0,1,0,0,0,1 @ F,0,0,1,0,0,0,1"
       radius="0"
       unit="px"
       method="auto"
       mode="F"
       chamfer_steps="1"
       flexible="false"
       use_knot_distance="true"
       apply_no_radius="true"
       apply_with_radius="true"
       only_selected="false"
       hide_knots="false" />
    <rect
       x="647"
       y="1396"
       width="269.39783"
       height="53.029438"
       id="rect24" />
    <linearGradient
       id="linearGradient7"
       inkscape:collect="always">
      <stop
         style="stop-color:#2264da;stop-opacity:1;"
         offset="0"
         id="stop7" />
      <stop
         style="stop-color:#23d9fb;stop-opacity:1;"
         offset="1"
         id="stop8" />
    </linearGradient>
    <inkscape:path-effect
       effect="mirror_symmetry"
       start_point="242.94641,82.84766"
       end_point="242.94641,171.4996"
       center_point="242.94641,127.17363"
       id="path-effect1"
       is_visible="true"
       lpeversion="1.2"
       lpesatellites=""
       mode="free"
       discard_orig_path="false"
       fuse_paths="true"
       oposite_fuse="false"
       split_items="false"
       split_open="false"
       link_styles="false" />
    <rect
       x="578"
       y="662"
       width="341.93057"
       height="146.86023"
       id="rect30" />
    <rect
       x="789.13116"
       y="555.78595"
       width="137.17873"
       height="214.96046"
       id="rect29" />
    <inkscape:path-effect
       effect="fillet_chamfer"
       id="path-effect17"
       is_visible="true"
       lpeversion="1"
       nodesatellites_param="F,0,0,1,0,0,0,1 @ F,0,0,1,0,0,0,1 @ F,0,0,1,0,0,0,1 @ F,0,0,1,0,0,0,1 @ F,0,0,1,0,0,0,1 @ F,0,0,1,0,0,0,1"
       radius="0"
       unit="px"
       method="auto"
       mode="F"
       chamfer_steps="1"
       flexible="false"
       use_knot_distance="true"
       apply_no_radius="true"
       apply_with_radius="true"
       only_selected="false"
       hide_knots="false" />
    <inkscape:path-effect
       effect="fillet_chamfer"
       id="path-effect16"
       is_visible="true"
       lpeversion="1"
       nodesatellites_param="F,0,0,1,0,0,0,1 @ F,0,0,1,0,0,0,1 @ F,0,0,1,0,0,0,1 @ F,0,0,1,0,0,0,1 @ F,0,0,1,0,0,0,1 @ F,0,0,1,0,0,0,1"
       radius="0"
       unit="px"
       method="auto"
       mode="F"
       chamfer_steps="1"
       flexible="false"
       use_knot_distance="true"
       apply_no_radius="true"
       apply_with_radius="true"
       only_selected="false"
       hide_knots="false" />
    <inkscape:path-effect
       effect="fillet_chamfer"
       id="path-effect15"
       is_visible="true"
       lpeversion="1"
       nodesatellites_param="F,0,0,1,0,0,0,1 @ F,0,0,1,0,0,0,1 @ F,0,0,1,0,0,0,1 @ F,0,0,1,0,0,0,1 @ F,0,0,1,0,0,0,1 @ F,0,0,1,0,0,0,1"
       radius="0"
       unit="px"
       method="auto"
       mode="F"
       chamfer_steps="1"
       flexible="false"
       use_knot_distance="true"
       apply_no_radius="true"
       apply_with_radius="true"
       only_selected="false"
       hide_knots="false" />
    <inkscape:path-effect
       effect="fillet_chamfer"
       id="path-effect14"
       is_visible="true"
       lpeversion="1"
       nodesatellites_param="F,0,0,1,0,0,0,1 @ F,0,0,1,0,0,0,1 @ F,0,0,1,0,0,0,1 @ F,0,0,1,0,0,0,1 @ F,0,0,1,0,0,0,1 @ F,0,0,1,0,0,0,1"
       radius="0"
       unit="px"
       method="auto"
       mode="F"
       chamfer_steps="1"
       flexible="false"
       use_knot_distance="true"
       apply_no_radius="true"
       apply_with_radius="true"
       only_selected="false"
       hide_knots="false" />
    <inkscape:path-effect
       effect="fillet_chamfer"
       id="path-effect13"
       is_visible="true"
       lpeversion="1"
       nodesatellites_param="F,0,0,1,0,0,0,1 @ F,0,0,1,0,0,0,1 @ F,0,0,1,0,0,0,1 @ F,0,0,1,0,0,0,1 @ F,0,0,1,0,0,0,1 @ F,0,0,1,0,0,0,1"
       radius="0"
       unit="px"
       method="auto"
       mode="F"
       chamfer_steps="1"
       flexible="false"
       use_knot_distance="true"
       apply_no_radius="true"
       apply_with_radius="true"
       only_selected="false"
       hide_knots="false" />
    <inkscape:path-effect
       effect="fillet_chamfer"
       id="path-effect12"
       is_visible="true"
       lpeversion="1"
       nodesatellites_param="F,0,0,1,0,0,0,1 @ F,0,0,1,0,0,0,1 @ F,0,0,1,0,0,0,1 @ F,0,0,1,0,0,0,1 @ F,0,0,1,0,0,0,1 @ F,0,0,1,0,0,0,1"
       radius="0"
       unit="px"
       method="auto"
       mode="F"
       chamfer_steps="1"
       flexible="false"
       use_knot_distance="true"
       apply_no_radius="true"
       apply_with_radius="true"
       only_selected="false"
       hide_knots="false" />
    <linearGradient
       inkscape:collect="always"
       xlink:href="#linearGradient7"
       id="linearGradient8"
       x1="224.6479"
       y1="135.36761"
       x2="273.61124"
       y2="91.947289"
       gradientUnits="userSpaceOnUse" />
  </defs>
  <g
     inkscape:label="background"
     inkscape:groupmode="layer"
     id="layer1"
     style="display:inline">
    <rect
       style="display:inline;fill:#000000;stroke-width:0.552997;stroke-linecap:round;stroke-linejoin:round"
       id="rect1"
       width="132.16916"
       height="127.44882"
       x="3.2873323"
       y="3.5709915"
       rx="0.74020034"
       ry="0" />
    <path
       style="fill:#ffffff;fill-opacity:1;stroke:none;stroke-width:1.38553;stroke-linecap:round;stroke-linejoin:round;stroke-dasharray:none;stroke-dashoffset:0;stroke-opacity:1"
       d="m 34.585525,102.54169 -3.11917,2.30525 -4.745763,-6.421356 -1.659135,1.226199 -0.62349,-7.415621 7.051984,2.830998 -1.526405,1.128104 z"
       id="path34-3" />
    <path
       style="fill:url(#linearGradient8);stroke:none;stroke-width:3.7;stroke-linecap:round;stroke-linejoin:round;stroke-dasharray:none;stroke-dashoffset:0;stroke-opacity:1"
       d="m 239.48633,70.769531 c 0,0 -5.24094,7.748295 -12.99219,17.246094 -5.10372,7.944139 -18.71757,22.742205 -18.55859,37.636715 1.00089,15.08159 17.48307,31.87305 35.01172,31.87305 17.52865,0 34.00887,-16.79146 35.00976,-31.87305 0.15898,-14.89451 -13.45487,-29.692576 -18.55859,-37.636715 -7.75125,-9.497799 -12.99219,-17.246094 -12.99219,-17.246094 v 8.164063 c 0,0 12.97982,19.075438 15.60937,23.017576 5.26909,7.90828 9.76785,16.75746 9.7168,23.70117 0,6.94997 -11.03579,26.27344 -28.78515,26.27344 -17.74936,0 -28.78711,-19.32347 -28.78711,-26.27344 -0.0511,-6.94371 4.4477,-15.79289 9.71679,-23.70117 2.62955,-3.942138 15.60938,-23.017576 15.60938,-23.017576 z"
       id="path43"
       inkscape:path-effect="#path-effect1"
       inkscape:original-d="m 239.48618,70.76875 v 8.165147 c 0,0 -12.97931,19.075923 -15.60886,23.018063 -5.26909,7.90828 -9.7689,16.75583 -9.71785,23.69954 0,6.94997 11.03758,26.2744 28.78694,26.2744 -10e-6,-7.42365 0,1.49362 0,5.6004 -17.52865,0 -34.00986,-16.79321 -35.01075,-31.8748 -0.15898,-14.89451 13.45539,-29.692348 18.55911,-37.636487 7.75125,-9.497799 12.99141,-17.246263 12.99141,-17.246263 z"
       sodipodi:nodetypes="ccccccccc"
       transform="matrix(0.44474242,0,0,0.44474242,-3.6398906,-18.204357)" />
    <path
       d="m 39.126999,67.303475 -0.08786,0.84347 0.843467,-0.23723 0.0615,0.40417 -0.808323,0.0659 0.522771,0.69411 -0.377803,0.20646 -0.37341,-0.76877 -0.338267,0.76877 -0.39098,-0.20646 0.513986,-0.69411 -0.799535,-0.0659 0.0615,-0.40417 0.83468,0.23723 -0.09225,-0.84347 z m 2.90821,0.97966 q 0,0.17572 -0.02197,0.32948 h 0.02637 q 0.114223,-0.18012 0.307517,-0.27237 0.197688,-0.0923 0.426125,-0.0923 0.43052,0 0.64578,0.20649 0.21526,0.20208 0.21526,0.65456 v 1.53318 h -0.382194 v -1.50682 q 0,-0.56671 -0.527166,-0.56671 -0.395376,0 -0.544743,0.22404 -0.144969,0.21966 -0.144969,0.63261 v 1.21688 h -0.386592 v -3.33873 h 0.386588 z m 2.526013,-0.87862 q 0.08786,0 0.153756,0.0615 0.07029,0.0571 0.07029,0.18451 0,0.123 -0.07029,0.18451 -0.06589,0.0615 -0.153756,0.0615 -0.09664,0 -0.162544,-0.0615 -0.06589,-0.0615 -0.06589,-0.18451 0,-0.1274 0.06589,-0.18451 0.06589,-0.0615 0.162544,-0.0615 z m 0.1889,0.88301 v 2.35468 h -0.386589 v -2.35468 z m 1.581504,2.39861 q -0.439308,0 -0.702893,-0.30312 -0.263581,-0.30753 -0.263581,-0.91376 0,-0.60624 0.263581,-0.91375 0.267979,-0.31192 0.707283,-0.31192 0.272369,0 0.443701,0.10109 0.175723,0.10109 0.285546,0.24601 h 0.02637 q -0.0045,-0.0571 -0.01757,-0.16693 -0.0088,-0.11422 -0.0088,-0.18012 v -0.94012 h 0.386593 v 3.33873 h -0.311911 l -0.05711,-0.3163 h -0.01757 q -0.105434,0.14938 -0.281152,0.2548 -0.175722,0.10544 -0.452486,0.10544 z m 0.0615,-0.32071 q 0.37341,0 0.522777,-0.20206 0.153756,-0.20648 0.153756,-0.61943 v -0.0703 q 0,-0.43929 -0.144973,-0.67213 -0.144968,-0.23723 -0.53595,-0.23723 -0.311907,0 -0.470057,0.25041 -0.153761,0.24601 -0.153761,0.66334 0,0.42174 0.153761,0.65458 0.15815,0.23282 0.474447,0.23282 z m 2.714916,-2.12184 q 0.30312,0 0.518379,0.1318 0.219654,0.13179 0.333873,0.37341 0.118612,0.23722 0.118612,0.55791 v 0.23284 h -1.612252 q 0.0088,0.39977 0.202081,0.61064 0.197688,0.20648 0.549132,0.20648 0.224048,0 0.395377,-0.0396 0.175721,-0.0439 0.360232,-0.12301 v 0.33827 q -0.180117,0.0791 -0.355838,0.11423 -0.175723,0.0395 -0.417342,0.0395 -0.333873,0 -0.593064,-0.13619 -0.254798,-0.13618 -0.39977,-0.40415 -0.140579,-0.27238 -0.140579,-0.66336 0,-0.38659 0.127401,-0.66335 0.13179,-0.27676 0.364622,-0.42613 0.237226,-0.14936 0.549136,-0.14936 z m -0.0045,0.31631 q -0.276763,0 -0.439308,0.18011 -0.15815,0.17573 -0.1889,0.49203 h 1.199306 q -0.0045,-0.29873 -0.140578,-0.48324 -0.136184,-0.1889 -0.43052,-0.1889 z m 4.234909,0.75122 q -0.05711,-0.18012 -0.101044,-0.35146 -0.03954,-0.17571 -0.0615,-0.27237 h -0.01757 q -0.01757,0.0966 -0.05711,0.27237 -0.03954,0.17134 -0.101044,0.35585 l -0.421731,1.32231 h -0.439308 l -0.645779,-2.35468 h 0.39977 l 0.325084,1.25641 q 0.04832,0.1889 0.09225,0.3822 0.04394,0.19329 0.0615,0.32069 h 0.01757 q 0.01757,-0.0747 0.03954,-0.18451 0.02637,-0.1098 0.05711,-0.22843 0.03073,-0.12301 0.0615,-0.21966 l 0.417342,-1.3267 h 0.421736 l 0.40416,1.3267 q 0.04832,0.14937 0.09225,0.32509 0.04832,0.17572 0.06589,0.30312 h 0.01757 q 0.01317,-0.1098 0.05711,-0.30312 0.04832,-0.1933 0.101045,-0.39538 l 0.329478,-1.25641 h 0.395376 l -0.654563,2.35468 h -0.452486 z m 2.130637,-1.9066 q 0.08785,0 0.153755,0.0615 0.07029,0.0571 0.07029,0.18451 0,0.123 -0.07029,0.18451 -0.06589,0.0615 -0.153755,0.0615 -0.09665,0 -0.162546,-0.0615 -0.06589,-0.0615 -0.06589,-0.18451 0,-0.1274 0.06589,-0.18451 0.06589,-0.0615 0.162546,-0.0615 z m 0.188898,0.88301 v 2.35468 h -0.386587 v -2.35468 z m 1.880229,-0.0439 q 0.421732,0 0.636991,0.20646 0.21526,0.20209 0.21526,0.65897 v 1.53317 h -0.382193 v -1.50681 q 0,-0.56671 -0.527171,-0.56671 -0.390982,0 -0.540345,0.21966 -0.149366,0.21966 -0.149366,0.6326 v 1.22126 h -0.386588 v -2.35467 h 0.311906 l 0.05711,0.32069 h 0.02197 q 0.11422,-0.18451 0.316302,-0.27236 0.202081,-0.0923 0.426129,-0.0923 z m 2.416183,2.44254 q -0.439306,0 -0.702888,-0.30312 -0.263586,-0.30752 -0.263586,-0.91376 0,-0.60624 0.263586,-0.91376 0.267975,-0.3119 0.707283,-0.3119 0.272369,0 0.443698,0.10109 0.175721,0.10097 0.285551,0.24601 h 0.02637 q -0.0045,-0.0571 -0.01757,-0.16694 -0.0088,-0.11421 -0.0088,-0.18012 v -0.94011 h 0.386588 v 3.33871 h -0.311907 l -0.05711,-0.31629 h -0.01757 q -0.105434,0.14937 -0.281158,0.2548 -0.175721,0.10545 -0.452485,0.10545 z m 0.0615,-0.3207 q 0.37341,0 0.522773,-0.20207 0.153761,-0.20649 0.153761,-0.61942 v -0.0703 q 0,-0.43931 -0.144973,-0.67214 -0.144973,-0.23723 -0.535954,-0.23723 -0.311907,0 -0.470058,0.25041 -0.153756,0.24601 -0.153756,0.66335 0,0.42173 0.153756,0.65457 0.158151,0.23282 0.474451,0.23282 z m 3.852715,-0.90497 q 0,0.58429 -0.298729,0.90497 -0.294336,0.3207 -0.799536,0.3207 -0.311907,0 -0.55792,-0.14059 -0.24162,-0.14496 -0.382195,-0.41734 -0.140578,-0.27675 -0.140578,-0.66774 0,-0.58427 0.294335,-0.90057 0.294335,-0.3163 0.799535,-0.3163 0.320696,0 0.562315,0.14497 0.246009,0.14057 0.382194,0.41295 0.140579,0.26797 0.140579,0.65895 z m -1.779192,0 q 0,0.41735 0.162544,0.66336 0.166939,0.24161 0.527166,0.24161 0.355839,0 0.522777,-0.24161 0.166935,-0.24601 0.166935,-0.66336 0,-0.41734 -0.166935,-0.65456 -0.166938,-0.23723 -0.527166,-0.23723 -0.360233,0 -0.522777,0.23723 -0.162544,0.23722 -0.162544,0.65456 z m 3.821961,-0.14935 q -0.05711,-0.18012 -0.101045,-0.35146 -0.03954,-0.17571 -0.0615,-0.27237 h -0.01757 q -0.01757,0.0966 -0.05711,0.27237 -0.03954,0.17134 -0.101044,0.35585 l -0.421731,1.32231 h -0.439273 l -0.64578,-2.35468 h 0.399766 l 0.325089,1.25642 q 0.04832,0.18889 0.09225,0.38219 0.04394,0.19329 0.0615,0.32069 h 0.01757 q 0.01757,-0.0747 0.03954,-0.18451 0.02637,-0.10981 0.05711,-0.22843 0.03077,-0.12301 0.0615,-0.21966 l 0.417342,-1.3267 h 0.421735 l 0.40416,1.3267 q 0.04832,0.14937 0.09225,0.32509 0.04832,0.17572 0.06589,0.30312 h 0.01757 q 0.01317,-0.1098 0.05711,-0.30312 0.04832,-0.19329 0.101044,-0.39537 l 0.329483,-1.25642 h 0.395376 l -0.654568,2.35468 h -0.452499 z"
       id="text24"
       style="font-size:37.3333px;white-space:pre;display:none;fill:#f2f2f2;stroke-width:0.470685;stroke-linecap:round;stroke-linejoin:round"
       aria-label="* hide window" />
    <path
       d="m 84.454563,7.567606 h 0.60413 V 4.9803538 c 0.354598,-0.3611646 0.60413,-0.5450303 0.971861,-0.5450303 0.472798,0 0.676363,0.2823651 0.676363,0.9521613 V 7.567606 h 0.597564 V 5.3086853 c 0,-0.9061949 -0.341465,-1.3986922 -1.090061,-1.3986922 -0.485931,0 -0.853662,0.2692319 -1.181993,0.5975633 l 0.02627,-0.7354625 V 2.3405686 h -0.60413 z m 3.985947,0 h 0.60413 V 4.0019259 h -0.60413 z m 0.302065,-4.3011426 c 0.236399,0 0.400564,-0.1575991 0.400564,-0.4005644 0,-0.2298321 -0.164165,-0.3874312 -0.400564,-0.3874312 -0.236399,0 -0.393998,0.1575991 -0.393998,0.3874312 0,0.2429653 0.157599,0.4005644 0.393998,0.4005644 z m 2.718582,4.3865088 c 0.426831,0 0.807695,-0.2298321 1.083494,-0.5056305 h 0.0197 l 0.05253,0.4202643 h 0.492497 V 2.3405686 h -0.60413 v 1.3724256 l 0.03283,0.6106966 C 92.222886,4.0675922 91.953654,3.9099931 91.53339,3.9099931 c -0.814262,0 -1.543158,0.7223293 -1.543158,1.8780562 0,1.18856 0.577863,1.8649229 1.470925,1.8649229 z M 91.59249,7.1473417 c -0.62383,0 -0.984995,-0.5056305 -0.984995,-1.3658591 0,-0.8142621 0.459664,-1.365859 1.030961,-1.365859 0.295498,0 0.571297,0.1050661 0.866795,0.3742979 V 6.661411 c -0.295498,0.3283315 -0.58443,0.4859307 -0.912761,0.4859307 z m 4.169816,0.5056305 c 0.479364,0 0.860228,-0.1575992 1.16886,-0.3611647 L 96.721034,6.8912431 c -0.269232,0.177299 -0.545031,0.2823651 -0.893062,0.2823651 -0.676363,0 -1.142594,-0.4859306 -1.181993,-1.2476597 h 2.403386 c 0.01313,-0.091933 0.02627,-0.2101322 0.02627,-0.3414648 0,-1.0178276 -0.512197,-1.6744906 -1.424959,-1.6744906 -0.814262,0 -1.595691,0.7157627 -1.595691,1.8780562 0,1.1754267 0.755162,1.8649229 1.707324,1.8649229 z M 94.639412,5.4991176 c 0.07223,-0.7091961 0.518764,-1.1097605 1.024394,-1.1097605 0.558164,0 0.886495,0.3874312 0.886495,1.1097605 z"
       id="text1"
       style="font-size:6.56663px;font-family:'Noto Sans CJK SC';-inkscape-font-specification:'Noto Sans CJK SC';fill:#ffffff;stroke-width:1.32293;stroke-linecap:round;stroke-linejoin:round"
       transform="rotate(53.161503)"
       aria-label="hide" />
    <path
       d="m 88.209697,40.855042 h 0.656268 v -2.48954 C 89.122766,37.709234 89.5151,37.4667 89.836101,37.4667 c 0.164067,0 0.249667,0.0214 0.378067,0.0642 l 0.121267,-0.563534 c -0.121267,-0.0642 -0.242534,-0.0856 -0.413734,-0.0856 -0.428001,0 -0.827469,0.313867 -1.098536,0.806068 h -0.01427 l -0.0642,-0.706201 h -0.535001 z m 4.258615,0.09273 c 0.520735,0 0.934469,-0.1712 1.269737,-0.392334 l -0.228267,-0.435135 c -0.292468,0.192601 -0.592069,0.306735 -0.970136,0.306735 -0.734735,0 -1.241203,-0.527868 -1.284003,-1.355337 h 2.610806 c 0.01427,-0.09987 0.02853,-0.228267 0.02853,-0.370934 0,-1.105669 -0.556401,-1.819004 -1.547937,-1.819004 -0.884535,0 -1.733404,0.777535 -1.733404,2.040138 0,1.276869 0.820336,2.025871 1.854671,2.025871 z M 91.24851,38.608036 c 0.07847,-0.770402 0.563534,-1.205536 1.112802,-1.205536 0.606335,0 0.963002,0.420868 0.963002,1.205536 z m 4.615283,2.339739 c 0.913069,0 1.40527,-0.520734 1.40527,-1.148469 0,-0.734735 -0.613468,-0.963003 -1.177003,-1.177003 -0.435134,-0.164067 -0.834602,-0.306734 -0.834602,-0.670535 0,-0.306734 0.228267,-0.563535 0.720469,-0.563535 0.3424,0 0.613468,0.149801 0.877402,0.342401 l 0.313867,-0.406601 c -0.292467,-0.242534 -0.720468,-0.442267 -1.198403,-0.442267 -0.848868,0 -1.333936,0.485067 -1.333936,1.098535 0,0.663402 0.584935,0.920203 1.127069,1.119936 0.428001,0.156934 0.884536,0.342401 0.884536,0.734735 0,0.335268 -0.249668,0.606335 -0.763269,0.606335 -0.463668,0 -0.806068,-0.185467 -1.148469,-0.463668 l -0.313868,0.435135 c 0.363801,0.306734 0.891669,0.535001 1.440937,0.535001 z m 3.381216,0 c 0.242534,0 0.499334,-0.07133 0.720468,-0.142667 l -0.1284,-0.492201 c -0.128401,0.05707 -0.299601,0.107 -0.442268,0.107 -0.449401,0 -0.599201,-0.271067 -0.599201,-0.741868 V 37.5095 h 1.055735 V 36.981633 H 98.795608 V 35.89023 h -0.542135 l -0.07133,1.091403 -0.613469,0.03567 V 37.5095 h 0.577802 v 2.147139 c 0,0.777535 0.2782,1.291136 1.098536,1.291136 z m 2.874751,0 c 0.94873,0 1.79047,-0.741868 1.79047,-2.025871 0,-1.291137 -0.84174,-2.040138 -1.79047,-2.040138 -0.94874,0 -1.79047,0.749001 -1.79047,2.040138 0,1.284003 0.84173,2.025871 1.79047,2.025871 z m 0,-0.542135 c -0.67054,0 -1.11994,-0.592068 -1.11994,-1.483736 0,-0.891669 0.4494,-1.49087 1.11994,-1.49087 0.67053,0 1.12707,0.599201 1.12707,1.49087 0,0.891668 -0.45654,1.483736 -1.12707,1.483736 z m 2.81768,0.449402 h 0.65627 v -2.48954 c 0.2568,-0.656268 0.64913,-0.898802 0.97013,-0.898802 0.16407,0 0.24967,0.0214 0.37807,0.0642 l 0.12127,-0.563534 c -0.12127,-0.0642 -0.24254,-0.0856 -0.41374,-0.0856 -0.428,0 -0.82747,0.313867 -1.09853,0.806068 h -0.0143 l -0.0642,-0.706201 h -0.535 z m 4.25861,0.09273 c 0.52074,0 0.93447,-0.1712 1.26974,-0.392334 l -0.22827,-0.435135 c -0.29247,0.192601 -0.59207,0.306735 -0.97013,0.306735 -0.73474,0 -1.24121,-0.527868 -1.28401,-1.355337 h 2.61081 c 0.0143,-0.09987 0.0285,-0.228267 0.0285,-0.370934 0,-1.105669 -0.5564,-1.819004 -1.54793,-1.819004 -0.88454,0 -1.73341,0.777535 -1.73341,2.040138 0,1.276869 0.82034,2.025871 1.85467,2.025871 z m -1.2198,-2.339739 c 0.0785,-0.770402 0.56353,-1.205536 1.1128,-1.205536 0.60634,0 0.963,0.420868 0.963,1.205536 z"
       id="text2"
       style="font-size:7.13335px;font-family:'Noto Sans CJK SC';-inkscape-font-specification:'Noto Sans CJK SC';fill:#ffffff;stroke-width:1.4371;stroke-linecap:round;stroke-linejoin:round"
       transform="rotate(56.169634)"
       aria-label="restore" />
  </g>
  <g
     inkscape:groupmode="layer"
     id="layer3"
     inkscape:label="bell-ring"
     style="display:inline">
    <path
       style="display:inline;fill:#ffffff;stroke:none;stroke-width:0.159522;stroke-linecap:round;stroke-linejoin:round;stroke-opacity:1"
       d="m 39.023714,36.464963 c -0.408426,2.655568 0.660773,2.181221 8.318086,2.230979 7.269501,0.04724 8.397671,0.607219 8.285437,-2.184206 -0.0541,-1.345461 -2.007353,-0.203627 -2.350297,-1.630107 -0.331573,-1.379181 -0.359281,-3.26993 -0.738707,-5.87652 -0.347689,-2.388565 -2.138018,-6.317777 -4.870913,-6.329832 -2.732895,-0.01205 -4.705917,4.534908 -5.042167,6.124933 -0.295142,1.395637 -0.878476,4.270761 -1.300479,6.092604 -0.333418,1.43941 -2.133041,0.480349 -2.30096,1.572149 z"
       id="path17"
       sodipodi:nodetypes="ssssszsss" />
    <path
       style="display:inline;fill:#ffffff;stroke:none;stroke-width:0.0899349;stroke-linecap:round;stroke-linejoin:round;stroke-opacity:1"
       d="m 50.14586,39.100374 c 0,0 -0.204114,2.143493 -2.411188,2.143493 -2.207079,0 -2.778284,-1.108396 -2.778284,-2.14529 0.680652,0 3.23917,0.0018 5.189472,0.0018 z"
       id="path18"
       sodipodi:nodetypes="czccc" />
    <path
       style="display:inline;fill:#000000;stroke:none;stroke-width:0.0690064;stroke-linecap:round;stroke-linejoin:round;stroke-opacity:1"
       d="m 49.490178,39.325077 c 0,0 -0.156616,1.644687 -1.850088,1.644687 -1.693476,0 -2.131758,-0.850465 -2.131758,-1.646066 0.522259,0 2.485393,0.0014 3.981846,0.0014 z"
       id="path18-1"
       sodipodi:nodetypes="czccc"
       inkscape:label="path18-dark" />
    <path
       style="display:inline;fill:#000000;stroke:none;stroke-width:0.140335;stroke-linecap:round;stroke-linejoin:round;stroke-opacity:1"
       d="m 40.081989,36.743077 c -0.04851,1.789642 0.468609,1.033203 7.761164,1.077316 6.345995,0.03839 6.636288,0.706517 6.65123,-1.068922 0.01005,-1.193678 -2.21106,-0.356261 -2.323348,-1.480555 -0.124868,-1.250253 -0.277239,-4.198123 -0.8069,-6.409715 -0.498226,-2.080339 -1.272062,-5.421807 -3.657766,-5.432497 -2.385706,-0.01071 -3.593577,4.067088 -3.887109,5.476685 -0.257646,1.237269 -1.328139,4.886949 -1.696529,6.502058 -0.291062,1.276076 -2.014219,0.357046 -2.040742,1.33563 z"
       id="path17-3"
       sodipodi:nodetypes="ssssszsss"
       inkscape:label="path17-dark" />
    <rect
       style="fill:none;stroke:#ffffff;stroke-width:0.494834;stroke-linecap:round;stroke-linejoin:round;stroke-opacity:1"
       id="rect18"
       width="52.457306"
       height="27.584793"
       x="9.2825909"
       y="17.536936"
       rx="1.3342272"
       ry="1.3342272" />
    <path
       style="display:inline;fill:#ffffff;fill-opacity:1;stroke:none;stroke-width:0.494834;stroke-linecap:round;stroke-linejoin:round;stroke-opacity:1"
       d="m 14.009736,21.639935 h 1.157429 l 6.001393,4.991362 -6.049247,5.497385 -1.275909,-0.092 5.977392,-5.497398 z"
       id="path19"
       sodipodi:nodetypes="ccccccc" />
    <path
       style="display:inline;fill:#ffffff;fill-opacity:1;stroke:none;stroke-width:0.494834;stroke-linecap:round;stroke-linejoin:round;stroke-opacity:1"
       d="m 20.323913,31.422969 8.897405,0.0067 -0.0013,1.164398 -8.910908,0.0121"
       id="path21"
       sodipodi:nodetypes="cccc" />
    <path
       style="display:inline;fill:#ffffff;stroke-width:1.836;stroke-linecap:round;stroke-linejoin:round"
       d="m 47.2295,19.946051 c 0,0 0.08264,-0.621705 0.431823,-0.625305 0.349186,-0.0036 0.45361,0.555502 0.505124,0.642416 0.04324,0.06211 0.68562,2.561002 0.68562,2.561002 0,0 -0.527238,-0.21146 -1.187058,-0.224418 -0.6404,-0.01258 -1.190727,0.201862 -1.190727,0.201862"
       id="path3"
       sodipodi:nodetypes="czccsc" />
    <path
       style="display:inline;fill:#000000;stroke-width:1.08745;stroke-linecap:round;stroke-linejoin:round"
       d="m 47.411541,20.474125 c 0,0 0.04895,-0.368232 0.255766,-0.370365 0.206821,-0.0021 0.268671,0.32902 0.299183,0.380499 0.02561,0.03679 0.406089,1.516867 0.406089,1.516867 0,0 -0.31228,-0.125246 -0.703088,-0.132922 -0.379305,-0.0074 -0.705261,0.119563 -0.705261,0.119563"
       id="path3-3"
       sodipodi:nodetypes="czccsc"
       inkscape:label="path3-dark" />
  </g>
  <g
     inkscape:groupmode="layer"
     id="layer4"
     inkscape:label="window-moving">
    <rect
       style="display:inline;fill:#f2f2f2;stroke-width:0.785637;stroke-linecap:round;stroke-linejoin:round"
       id="rect49"
       width="2.2357571"
       height="14.424664"
       x="42.916641"
       y="95.676483" />
    <rect
       style="display:inline;fill:#f2f2f2;stroke-width:0.4614;stroke-linecap:round;stroke-linejoin:round"
       id="rect50"
       width="19.219"
       height="2.3694677"
       x="42.794849"
       y="92.939957" />
    <rect
       style="display:inline;fill:#f2f2f2;stroke-width:1.00981;stroke-linecap:round;stroke-linejoin:round"
       id="rect52"
       width="13.410055"
       height="12.618235"
       x="46.341583"
       y="96.327209" />
    <rect
       style="display:inline;fill:#f2f2f2;stroke-width:0.663074;stroke-linecap:round;stroke-linejoin:round"
       id="rect54"
       width="19.732733"
       height="2.0801566"
       x="42.784191"
       y="110.7097" />
    <rect
       style="display:inline;fill:#ececec;stroke-width:0.868563;stroke-linecap:round;stroke-linejoin:round;stroke-dasharray:none"
       id="rect2"
       width="0.85989565"
       height="14.137211"
       x="61.155552"
       y="95.949966" />
    <rect
       style="fill:none;fill-opacity:1;stroke:#ffffff;stroke-width:0.793407;stroke-linecap:round;stroke-linejoin:round;stroke-dasharray:none;stroke-opacity:1"
       id="rect21"
       width="26.3839"
       height="25.076357"
       x="8.5199451"
       y="62.952839"
       rx="1.7789698"
       ry="1.7789698" />
    <rect
       style="fill:none;fill-opacity:1;stroke:#ffffff;stroke-width:0.771135;stroke-linecap:round;stroke-linejoin:round;stroke-dasharray:none;stroke-dashoffset:0;stroke-opacity:1"
       id="rect28"
       width="25.693733"
       height="24.818018"
       x="39.764648"
       y="90.592064"
       rx="2.0733559"
       ry="1.7749623" />
    <path
       style="fill:#ffffff;fill-opacity:1;stroke:none;stroke-width:1.38553;stroke-linecap:round;stroke-linejoin:round;stroke-dasharray:none;stroke-dashoffset:0;stroke-opacity:1"
       d="m 38.136674,75.671853 3.132266,-2.287425 4.709064,6.44832 1.666101,-1.216717 0.581188,7.41906 -7.035724,-2.871177 1.532814,-1.119379 z"
       id="path34" />
    <rect
       style="fill:#f2f2f2;stroke-width:0.931385;stroke-linecap:round;stroke-linejoin:round"
       id="rect43"
       width="3.2055564"
       height="17.256018"
       x="11.805917"
       y="65.956963" />
    <rect
       style="fill:#f2f2f2;stroke-width:0.551375;stroke-linecap:round;stroke-linejoin:round"
       id="rect46"
       width="13.995774"
       height="3.1522982"
       x="17.856813"
       y="66.113052" />
    <rect
       style="display:inline;fill:#f2f2f2;stroke-width:0.980484;stroke-linecap:round;stroke-linejoin:round"
       id="rect48"
       width="13.715141"
       height="10.166823"
       x="17.409842"
       y="72.258354" />
    <rect
       style="fill:#333333;stroke-width:0.919304;stroke-linecap:round;stroke-linejoin:round;stroke-dasharray:none"
       id="rect3"
       width="10.289877"
       height="1.4967092"
       x="47.326786"
       y="97.4468" />
    <rect
       style="fill:#4d4d4d;stroke-width:1.50112;stroke-linecap:round;stroke-linejoin:round;stroke-dasharray:none"
       id="rect4"
       width="5.7529769"
       height="1.6837981"
       x="47.42033"
       y="100.01927" />
    <rect
       style="fill:#333333;stroke-width:1.836;stroke-linecap:round;stroke-linejoin:round;stroke-dasharray:none"
       id="rect5"
       width="11.038231"
       height="1.403165"
       x="47.42033"
       y="102.82559" />
    <rect
       style="fill:#4d4d4d;stroke-width:1.836;stroke-linecap:round;stroke-linejoin:round;stroke-dasharray:none"
       id="rect6"
       width="2.0579753"
       height="1.3096207"
       x="47.65419"
       y="105.07066" />
    <rect
       style="fill:#333333;stroke-width:0.922374;stroke-linecap:round;stroke-linejoin:round;stroke-dasharray:none"
       id="rect7"
       width="10.731"
       height="1.4047779"
       x="18.450363"
       y="73.167717" />
    <rect
       style="fill:#4d4d4d;stroke-width:1.50826;stroke-linecap:round;stroke-linejoin:round;stroke-dasharray:none"
       id="rect8"
       width="7.276042"
       height="1.4552083"
       x="18.534128"
       y="76.353706" />
    <rect
       style="fill:#4d4d4d;stroke-width:1.99;stroke-linecap:round;stroke-linejoin:round;stroke-dasharray:none"
       id="rect9"
       width="6.6807289"
       height="1.4552083"
       x="18.732567"
       y="79.859436" />
    <rect
       style="fill:#000000;fill-opacity:0.64;stroke-width:1.65789;stroke-linecap:round;stroke-linejoin:round;stroke-dasharray:none"
       id="rect10"
       width="32.014584"
       height="30.691666"
       x="37.306248"
       y="87.973953"
       rx="0.68995941" />
  </g>
  <g
     inkscape:groupmode="layer"
     id="layer5"
     inkscape:label="font-dpi">
    <g
       id="text30"
       style="font-size:13.7444px;line-height:2.1;white-space:pre;fill:#ffffff;stroke-width:0.755906;stroke-linecap:round;stroke-linejoin:round"
       transform="matrix(0.47387976,0,0,0.47387976,-191.38863,-233.38107)"
       aria-label="X resources&#10;Font dpi: 96">
      <path
         d="m 585.99924,680.34706 h -1.40193 l -2.59769,-4.26077 -2.63892,4.26077 h -1.30572 l 3.25742,-5.11292 -3.05126,-4.70058 h 1.37444 l 2.40527,3.84843 2.41902,-3.84843 h 1.30572 l -3.03752,4.67309 z m 8.23291,-7.50444 q 0.20616,0 0.43982,0.0275 0.2474,0.0138 0.42607,0.055 l -0.15118,1.1133 q -0.17868,-0.0412 -0.39859,-0.0687 -0.20617,-0.0275 -0.39859,-0.0275 -0.56352,0 -1.05832,0.31612 -0.4948,0.30238 -0.79717,0.8659 -0.28864,0.54977 -0.28864,1.29197 v 3.9309 h -1.2095 v -7.367 h 0.98959 l 0.13745,1.34695 h 0.055 q 0.35736,-0.60475 0.92088,-1.04457 0.56352,-0.43982 1.33321,-0.43982 z m 4.81053,0 q 0.94836,0 1.62184,0.41233 0.68722,0.41233 1.04457,1.16827 0.3711,0.7422 0.3711,1.74554 v 0.72845 H 597.036 q 0.0275,1.25074 0.63224,1.91048 0.6185,0.64598 1.71805,0.64598 0.70097,0 1.237,-0.1237 0.54977,-0.13744 1.12704,-0.38484 v 1.05832 q -0.56352,0.2474 -1.1133,0.35735 -0.54977,0.1237 -1.30572,0.1237 -1.04457,0 -1.85549,-0.42607 -0.79718,-0.42608 -1.25074,-1.26449 -0.43982,-0.85215 -0.43982,-2.0754 0,-1.20951 0.39859,-2.07541 0.41233,-0.8659 1.14078,-1.3332 0.7422,-0.46731 1.71805,-0.46731 z m -0.0137,0.98959 q -0.8659,0 -1.37444,0.56352 -0.4948,0.54978 -0.59101,1.53938 h 3.75222 q -0.0137,-0.93462 -0.43982,-1.51189 -0.42608,-0.59101 -1.34695,-0.59101 z m 9.71728,4.48068 q 0,1.07206 -0.79718,1.62184 -0.79717,0.54977 -2.14412,0.54977 -0.76969,0 -1.33321,-0.1237 -0.54978,-0.1237 -0.97585,-0.34361 v -1.09955 q 0.43982,0.21991 1.05831,0.41233 0.63225,0.17868 1.27823,0.17868 0.92088,0 1.33321,-0.28863 0.41233,-0.30238 0.41233,-0.79718 0,-0.27489 -0.15119,-0.4948 -0.15118,-0.21991 -0.54977,-0.43982 -0.38484,-0.21991 -1.1133,-0.4948 -0.71471,-0.27488 -1.22325,-0.54977 -0.50854,-0.27489 -0.78343,-0.65973 -0.27489,-0.38485 -0.27489,-0.9896 0,-0.93462 0.75594,-1.44316 0.76969,-0.50854 2.00669,-0.50854 0.67347,0 1.25074,0.13744 0.59101,0.1237 1.09955,0.35735 l -0.41233,0.96211 q -0.46731,-0.19242 -0.97586,-0.32986 -0.50854,-0.13745 -1.04457,-0.13745 -0.7422,0 -1.14079,0.2474 -0.38484,0.23366 -0.38484,0.64599 0,0.30238 0.17868,0.52229 0.17868,0.20616 0.59101,0.41233 0.42607,0.19242 1.12704,0.46731 0.70096,0.26114 1.19576,0.53603 0.4948,0.27489 0.75594,0.67347 0.26115,0.38485 0.26115,0.97586 z m 8.19166,-1.66308 q 0,1.82801 -0.93462,2.83135 -0.92087,1.00334 -2.50148,1.00334 -0.97585,0 -1.74554,-0.43982 -0.75594,-0.45356 -1.19576,-1.30572 -0.43982,-0.86589 -0.43982,-2.08915 0,-1.828 0.92087,-2.8176 0.92088,-0.98959 2.50148,-0.98959 1.00334,0 1.75929,0.45356 0.76968,0.43982 1.19576,1.29197 0.43982,0.83841 0.43982,2.06166 z m -5.56648,0 q 0,1.30572 0.50854,2.07541 0.52229,0.75594 1.64933,0.75594 1.1133,0 1.63558,-0.75594 0.52229,-0.76969 0.52229,-2.07541 0,-1.30571 -0.52229,-2.04791 -0.52228,-0.7422 -1.64933,-0.7422 -1.12704,0 -1.63558,0.7422 -0.50854,0.7422 -0.50854,2.04791 z m 13.63444,-3.66975 v 7.367 h -0.9896 l -0.17868,-0.97585 h -0.055 q -0.35736,0.57726 -0.9896,0.85215 -0.63224,0.26114 -1.34695,0.26114 -1.33321,0 -2.00668,-0.63224 -0.67348,-0.64599 -0.67348,-2.04792 v -4.82428 h 1.22325 v 4.74182 q 0,1.75928 1.63559,1.75928 1.22325,0 1.69056,-0.68722 0.48105,-0.68722 0.48105,-1.97919 v -3.83469 z m 5.77264,-0.13744 q 0.20617,0 0.43983,0.0275 0.24739,0.0138 0.42607,0.055 l -0.15119,1.1133 q -0.17867,-0.0412 -0.39858,-0.0687 -0.20617,-0.0275 -0.39859,-0.0275 -0.56352,0 -1.05832,0.31612 -0.4948,0.30238 -0.79718,0.8659 -0.28863,0.54977 -0.28863,1.29197 v 3.9309 h -1.20951 v -7.367 h 0.9896 l 0.13745,1.34695 h 0.055 q 0.35736,-0.60475 0.92088,-1.04457 0.56352,-0.43982 1.3332,-0.43982 z m 4.9205,7.64188 q -0.97586,0 -1.74554,-0.39859 -0.75594,-0.39858 -1.19576,-1.23699 -0.42608,-0.83841 -0.42608,-2.14413 0,-1.36069 0.45356,-2.21285 0.45357,-0.85215 1.22326,-1.25074 0.78343,-0.39858 1.77302,-0.39858 0.56352,0 1.08581,0.1237 0.52229,0.10995 0.85215,0.27488 l -0.3711,1.00334 q -0.32986,-0.1237 -0.76968,-0.23365 -0.43982,-0.10996 -0.82467,-0.10996 -2.17161,0 -2.17161,2.79012 0,1.3332 0.52229,2.04791 0.53603,0.70097 1.5806,0.70097 0.60476,0 1.05832,-0.1237 0.46731,-0.1237 0.85215,-0.30238 v 1.07206 q -0.37109,0.19243 -0.82466,0.28864 -0.43982,0.10995 -1.07206,0.10995 z m 6.48735,-7.64188 q 0.94836,0 1.62184,0.41233 0.68722,0.41233 1.04457,1.16827 0.3711,0.7422 0.3711,1.74554 v 0.72845 h -5.0442 q 0.0275,1.25074 0.63225,1.91048 0.61849,0.64598 1.71805,0.64598 0.70096,0 1.23699,-0.1237 0.54978,-0.13744 1.12704,-0.38484 v 1.05832 q -0.56352,0.2474 -1.11329,0.35735 -0.54978,0.1237 -1.30572,0.1237 -1.04458,0 -1.85549,-0.42607 -0.79718,-0.42608 -1.25075,-1.26449 -0.43982,-0.85215 -0.43982,-2.0754 0,-1.20951 0.39859,-2.07541 0.41233,-0.8659 1.14079,-1.3332 0.74219,-0.46731 1.71805,-0.46731 z m -0.0137,0.98959 q -0.86589,0 -1.37444,0.56352 -0.4948,0.54978 -0.59101,1.53938 h 3.75222 q -0.0137,-0.93462 -0.43982,-1.51189 -0.42607,-0.59101 -1.34695,-0.59101 z m 9.71728,4.48068 q 0,1.07206 -0.79718,1.62184 -0.79717,0.54977 -2.14412,0.54977 -0.76969,0 -1.33321,-0.1237 -0.54978,-0.1237 -0.97585,-0.34361 v -1.09955 q 0.43982,0.21991 1.05832,0.41233 0.63224,0.17868 1.27823,0.17868 0.92087,0 1.3332,-0.28863 0.41234,-0.30238 0.41234,-0.79718 0,-0.27489 -0.15119,-0.4948 -0.15119,-0.21991 -0.54978,-0.43982 -0.38484,-0.21991 -1.1133,-0.4948 -0.7147,-0.27488 -1.22325,-0.54977 -0.50854,-0.27489 -0.78343,-0.65973 -0.27489,-0.38485 -0.27489,-0.9896 0,-0.93462 0.75595,-1.44316 0.76968,-0.50854 2.00668,-0.50854 0.67347,0 1.25074,0.13744 0.59101,0.1237 1.09955,0.35735 l -0.41233,0.96211 q -0.46731,-0.19242 -0.97585,-0.32986 -0.50855,-0.13745 -1.04458,-0.13745 -0.7422,0 -1.14078,0.2474 -0.38485,0.23366 -0.38485,0.64599 0,0.30238 0.17868,0.52229 0.17868,0.20616 0.59101,0.41233 0.42608,0.19242 1.12704,0.46731 0.70097,0.26114 1.19576,0.53603 0.4948,0.27489 0.75595,0.67347 0.26114,0.38485 0.26114,0.97586 z"
         id="path1" />
      <path
         d="m 580.5702,709.21028 h -1.23699 v -9.8135 h 5.48401 v 1.0858 h -4.24702 v 3.47734 h 3.98588 v 1.0858 h -3.98588 z m 12.1363,-3.69725 q 0,1.82801 -0.93462,2.83135 -0.92088,1.00334 -2.50148,1.00334 -0.97586,0 -1.74554,-0.43982 -0.75595,-0.45356 -1.19577,-1.30572 -0.43982,-0.86589 -0.43982,-2.08915 0,-1.828 0.92088,-2.8176 0.92087,-0.98959 2.50148,-0.98959 1.00334,0 1.75928,0.45356 0.76969,0.43982 1.19576,1.29197 0.43983,0.83841 0.43983,2.06166 z m -5.56649,0 q 0,1.30572 0.50855,2.07541 0.52228,0.75594 1.64932,0.75594 1.1133,0 1.63559,-0.75594 0.52229,-0.76969 0.52229,-2.07541 0,-1.30571 -0.52229,-2.04791 -0.52229,-0.7422 -1.64933,-0.7422 -1.12704,0 -1.63558,0.7422 -0.50855,0.7422 -0.50855,2.04791 z m 11.02301,-3.80719 q 1.31946,0 1.99293,0.64598 0.67348,0.63224 0.67348,2.06166 v 4.7968 h -1.19576 v -4.71433 q 0,-1.77303 -1.64933,-1.77303 -1.22325,0 -1.69056,0.68722 -0.46731,0.68722 -0.46731,1.97919 v 3.82095 h -1.20951 v -7.367 h 0.97585 l 0.17868,1.00334 h 0.0687 q 0.35736,-0.57726 0.9896,-0.85215 0.63224,-0.28863 1.33321,-0.28863 z m 7.40823,6.65229 q 0.27489,0 0.56352,-0.0412 0.28863,-0.055 0.46731,-0.10995 v 0.92087 q -0.19242,0.0962 -0.54978,0.15119 -0.35735,0.0687 -0.68722,0.0687 -0.57726,0 -1.07206,-0.19242 -0.48106,-0.20617 -0.78343,-0.70096 -0.30238,-0.4948 -0.30238,-1.38819 v -4.28825 h -1.04457 v -0.57727 l 1.05832,-0.48105 0.48105,-1.56686 h 0.71471 v 1.69056 h 2.13038 v 0.93462 h -2.13038 v 4.26076 q 0,0.67348 0.31612,1.00334 0.32986,0.31613 0.83841,0.31613 z m 8.68646,0.98959 q -1.37444,0 -2.1991,-0.94836 -0.82467,-0.96211 -0.82467,-2.85884 0,-1.89672 0.82467,-2.85883 0.83841,-0.97585 2.21285,-0.97585 0.85215,0 1.38818,0.31612 0.54978,0.31612 0.89339,0.76968 h 0.0825 q -0.0137,-0.17867 -0.055,-0.52228 -0.0275,-0.35736 -0.0275,-0.56352 v -2.94131 h 1.2095 v 10.44575 h -0.97585 l -0.17868,-0.9896 h -0.055 q -0.32987,0.46731 -0.87965,0.79718 -0.54977,0.32986 -1.41567,0.32986 z m 0.19242,-1.00334 q 1.16828,0 1.63559,-0.63224 0.48105,-0.64599 0.48105,-1.93796 v -0.21991 q 0,-1.37444 -0.45357,-2.1029 -0.45356,-0.74219 -1.67681,-0.74219 -0.97585,0 -1.47065,0.78343 -0.48106,0.76968 -0.48106,2.0754 0,1.31946 0.48106,2.04792 0.4948,0.72845 1.48439,0.72845 z m 9.15377,-6.63854 q 1.3607,0 2.18536,0.94836 0.83841,0.94836 0.83841,2.85883 0,1.88299 -0.83841,2.85884 -0.82466,0.97585 -2.1991,0.97585 -0.85216,0 -1.41568,-0.31612 -0.54977,-0.32986 -0.86589,-0.75594 h -0.0825 q 0.0275,0.23365 0.055,0.59101 0.0275,0.35735 0.0275,0.6185 v 3.02376 h -1.20951 v -10.66565 h 0.9896 l 0.16493,1.00334 h 0.055 q 0.32986,-0.48105 0.86589,-0.81092 0.53604,-0.32986 1.42942,-0.32986 z m -0.21991,1.01708 q -1.12704,0 -1.59435,0.63224 -0.45356,0.63225 -0.48105,1.92422 v 0.23365 q 0,1.3607 0.43982,2.1029 0.45356,0.72845 1.66307,0.72845 0.67348,0 1.09955,-0.3711 0.43982,-0.3711 0.64599,-1.00334 0.21991,-0.64599 0.21991,-1.47065 0,-1.26448 -0.4948,-2.02043 -0.48105,-0.75594 -1.49814,-0.75594 z m 5.78639,-3.64226 q 0.27489,0 0.48105,0.19242 0.21991,0.17867 0.21991,0.57726 0,0.38484 -0.21991,0.57727 -0.20616,0.19242 -0.48105,0.19242 -0.30238,0 -0.50854,-0.19242 -0.20617,-0.19243 -0.20617,-0.57727 0,-0.39859 0.20617,-0.57726 0.20616,-0.19242 0.50854,-0.19242 z m 0.59101,2.76262 v 7.367 h -1.20951 v -7.367 z m 2.15786,0.7422 q 0,-0.52229 0.2474,-0.72846 0.2474,-0.20616 0.59101,-0.20616 0.35735,0 0.60475,0.20616 0.26115,0.20617 0.26115,0.72846 0,0.4948 -0.26115,0.71471 -0.2474,0.21991 -0.60475,0.21991 -0.34361,0 -0.59101,-0.21991 -0.2474,-0.21991 -0.2474,-0.71471 z m 0,5.8826 q 0,-0.50854 0.2474,-0.71471 0.2474,-0.20616 0.59101,-0.20616 0.35735,0 0.60475,0.20616 0.26115,0.20617 0.26115,0.71471 0,0.4948 -0.26115,0.71471 -0.2474,0.21991 -0.60475,0.21991 -0.34361,0 -0.59101,-0.21991 -0.2474,-0.21991 -0.2474,-0.71471 z m 13.41453,-4.87926 q 0,1.05832 -0.19242,2.08915 -0.17868,1.01708 -0.67347,1.85549 -0.48106,0.82467 -1.37444,1.31946 -0.87965,0.4948 -2.26783,0.4948 -0.27489,0 -0.64599,-0.0412 -0.35735,-0.0275 -0.59101,-0.0962 v -1.03083 q 0.53604,0.17868 1.20951,0.17868 0.96211,0 1.58061,-0.31613 0.63224,-0.31612 1.00334,-0.85215 0.3711,-0.54977 0.53603,-1.26448 0.16493,-0.72846 0.19242,-1.52563 h -0.0825 q -0.30238,0.46731 -0.87965,0.81092 -0.56352,0.32986 -1.4569,0.32986 -1.26449,0 -2.04792,-0.76968 -0.76968,-0.78343 -0.76968,-2.19911 0,-1.03083 0.38484,-1.77302 0.39859,-0.7422 1.09955,-1.14079 0.70096,-0.39859 1.64933,-0.39859 0.93462,0 1.69056,0.48106 0.75594,0.46731 1.19576,1.42941 0.43982,0.94837 0.43982,2.41902 z m -3.32614,-3.3124 q -0.85215,0 -1.40193,0.56352 -0.53603,0.56352 -0.53603,1.71805 0,0.94836 0.45356,1.49814 0.46731,0.53603 1.42942,0.53603 0.65973,0 1.14079,-0.26114 0.48105,-0.27489 0.74219,-0.68722 0.27489,-0.41234 0.27489,-0.85216 0,-0.59101 -0.23365,-1.16827 -0.23366,-0.57727 -0.70097,-0.96211 -0.46731,-0.38484 -1.16827,-0.38484 z m 4.7968,4.74182 q 0,-1.05832 0.17868,-2.07541 0.19242,-1.03083 0.67347,-1.85549 0.4948,-0.83841 1.37444,-1.33321 0.87965,-0.4948 2.26783,-0.4948 0.28863,0 0.63224,0.0275 0.35736,0.0275 0.57727,0.0962 v 1.03083 q -0.2474,-0.0825 -0.56352,-0.1237 -0.30238,-0.0412 -0.6185,-0.0412 -0.94836,0 -1.58061,0.31612 -0.63224,0.31612 -1.00334,0.8659 -0.35735,0.54977 -0.52228,1.26448 -0.16494,0.71471 -0.20617,1.52563 h 0.0825 q 0.31612,-0.48105 0.87964,-0.81092 0.56352,-0.34361 1.44316,-0.34361 1.27823,0 2.06166,0.78343 0.78343,0.76969 0.78343,2.19911 0,1.53937 -0.85215,2.41901 -0.83841,0.87964 -2.26783,0.87964 -0.93462,0 -1.69056,-0.46731 -0.75594,-0.46731 -1.20951,-1.42942 -0.43982,-0.9621 -0.43982,-2.43275 z m 3.32615,3.3124 q 0.86589,0 1.40193,-0.54978 0.53603,-0.56352 0.53603,-1.73179 0,-0.93462 -0.48106,-1.4844 -0.46731,-0.54978 -1.41567,-0.54978 -0.64599,0 -1.12704,0.27489 -0.48105,0.26115 -0.75594,0.67348 -0.26115,0.41233 -0.26115,0.85215 0,0.59101 0.23366,1.18202 0.23365,0.57726 0.70096,0.96211 0.46731,0.3711 1.16828,0.3711 z"
         id="path2" />
    </g>
    <rect
       style="display:inline;fill:none;fill-opacity:1;stroke:#ffffff;stroke-width:1.64555;stroke-linecap:round;stroke-linejoin:round;stroke-dasharray:none;stroke-dashoffset:0;stroke-opacity:1"
       id="rect33"
       width="48.715973"
       height="42.126369"
       x="75.670647"
       y="66.519073"
       rx="0.74020034" />
    <path
       style="display:inline;fill:#ffffff;fill-opacity:1;stroke:none;stroke-width:0.94514;stroke-linecap:round;stroke-linejoin:round;stroke-dasharray:none;stroke-dashoffset:0;stroke-opacity:1"
       d="m 80.845469,70.675315 h 3.060139 l 7.284959,7.975784 h -3.21999 z"
       id="path35"
       sodipodi:nodetypes="ccccc" />
    <path
       style="display:inline;fill:#ffffff;fill-opacity:1;stroke:none;stroke-width:0.94514;stroke-linecap:round;stroke-linejoin:round;stroke-dasharray:none;stroke-dashoffset:0;stroke-opacity:1"
       d="m 79.243641,78.609676 10.093893,-7.850772 h 2.557729 l -9.819849,7.800765"
       id="path36"
       sodipodi:nodetypes="cccc" />
    <path
       style="fill:#000000;fill-opacity:1;stroke:none;stroke-width:1.00192;stroke-linecap:round;stroke-linejoin:round;stroke-dasharray:none;stroke-dashoffset:0;stroke-opacity:1"
       d="m 80.288265,78.699269 4.333966,-3.646247 0.865121,0.818321 -3.958746,3.392833"
       id="path37"
       sodipodi:nodetypes="cccc" />
    <path
       style="fill:#000000;fill-opacity:1;stroke:none;stroke-width:0.94514;stroke-linecap:round;stroke-linejoin:round;stroke-dasharray:none;stroke-dashoffset:0;stroke-opacity:1"
       d="m 86.053417,73.047776 0.817066,0.83821 4.457107,-3.285676 -1.415882,-1.050105"
       id="path38"
       sodipodi:nodetypes="cccc" />
    <path
       style="fill:#000000;fill-opacity:1;stroke:none;stroke-width:1.08519;stroke-linecap:round;stroke-linejoin:round;stroke-dasharray:none;stroke-dashoffset:0;stroke-opacity:1"
       d="m 84.429466,75.218817 2.27197,-1.878378 0.369494,0.387068 -2.372502,1.780539"
       id="path39"
       sodipodi:nodetypes="cccc" />
  </g>
</svg>
